<svg width="513" height="118" viewBox="0 0 513 118" fill="none" xmlns="http://www.w3.org/2000/svg">
<path d="M7.12743 81.5031C16.2934 41.801 55.9087 17.0467 95.6107 26.2126L138.699 36.1604V36.1604C128.388 80.8252 83.8206 108.674 39.1558 98.3622L14.0387 92.5635C9.07599 91.4177 5.98169 86.4658 7.12743 81.5031V81.5031Z" fill="#A2E68A"/>
<path d="M6.55677 84.7204C3.0055 44.1291 33.0324 8.34451 73.6236 4.79323L117.678 0.939016V0.939016C121.673 46.6042 87.8925 86.8619 42.2273 90.8571L16.5477 93.1038C11.4738 93.5477 7.00068 89.7943 6.55677 84.7204V84.7204Z" fill="#A2E68A"/>
<path d="M183.1 87.0254C178.51 87.0254 174.392 86.1465 170.746 84.3887C167.1 82.6309 164.008 80.1406 161.469 76.918C156.195 70.3424 153.559 61.6999 153.559 50.9902V49.9648C153.559 39.2878 156.195 30.6289 161.469 23.9883C164.008 20.7656 167.1 18.2754 170.746 16.5176C174.392 14.7598 178.51 13.8809 183.1 13.8809C187.95 13.8809 192.214 14.7598 195.893 16.5176C199.604 18.2754 202.696 20.7656 205.17 23.9883C207.676 27.2109 209.548 31.0358 210.785 35.4629C212.055 39.8574 212.689 44.6914 212.689 49.9648V50.9902C212.689 56.2962 212.055 61.1465 210.785 65.541C209.548 69.9355 207.676 73.7279 205.17 76.918C202.696 80.1406 199.604 82.6309 195.893 84.3887C192.214 86.1465 187.95 87.0254 183.1 87.0254ZM183.1 79.0176C187.82 79.0176 191.645 77.8457 194.574 75.502C197.471 73.1582 199.604 69.8867 200.971 65.6875C202.338 61.4557 203.021 56.5566 203.021 50.9902V49.8672C203.021 44.3333 202.338 39.4668 200.971 35.2676C199.571 31.1009 197.406 27.8457 194.477 25.502C191.547 23.1257 187.755 21.9375 183.1 21.9375C178.835 21.9375 175.222 23.1257 172.26 25.502C169.298 27.8783 167.051 31.166 165.521 35.3652C163.992 39.5319 163.227 44.3659 163.227 49.8672V50.9902C163.227 56.4915 163.992 61.3581 165.521 65.5898C167.051 69.8216 169.298 73.1257 172.26 75.502C175.222 77.8457 178.835 79.0176 183.1 79.0176Z" fill="#A2E68A"/>
<path d="M235.395 98.7441L243.793 100.111V106.312H218.305V100.111L225.775 98.7441V40.7363L217.816 39.3691V33.168H234.027L234.906 39.6133C238.52 34.6654 243.581 32.1914 250.092 32.1914C254.486 32.1914 258.214 33.3633 261.273 35.707C264.366 38.0833 266.726 41.4036 268.354 45.668C269.981 49.8997 270.795 54.8639 270.795 60.5605V61.5859C270.795 66.6315 269.981 71.0749 268.354 74.916C266.693 78.7246 264.333 81.7031 261.273 83.8516C258.214 85.9674 254.535 87.0254 250.238 87.0254C243.826 87.0254 238.878 84.8607 235.395 80.5312V98.7441ZM247.26 79.5059C251.817 79.5059 255.268 77.8457 257.611 74.5254C259.955 71.2051 261.127 66.8919 261.127 61.5859V60.5605C261.127 56.5566 260.606 52.9922 259.564 49.8672C258.523 46.7747 256.96 44.3659 254.877 42.6406C252.826 40.8828 250.255 40.0039 247.162 40.0039C244.428 40.0039 242.084 40.6224 240.131 41.8594C238.178 43.0964 236.599 44.7891 235.395 46.9375V72.6699C236.599 74.8509 238.161 76.5436 240.082 77.748C242.035 78.9199 244.428 79.5059 247.26 79.5059Z" fill="#A2E68A"/>
<path d="M296.918 86.8301C293.012 86.8301 289.903 85.6908 287.592 83.4121C285.313 81.1009 284.174 77.4225 284.174 72.377V40.2969H275.824V33.168H284.174V20.4238H293.793V33.168H305.268V40.2969H293.793V72.377C293.793 74.916 294.298 76.7878 295.307 77.9922C296.316 79.1966 297.667 79.7988 299.359 79.7988C300.499 79.7988 301.768 79.7012 303.168 79.5059C304.568 79.278 305.658 79.0827 306.439 78.9199L307.758 85.2188C306.358 85.6419 304.633 86.0163 302.582 86.3418C300.564 86.6673 298.676 86.8301 296.918 86.8301Z" fill="#A2E68A"/>
<path d="M356.977 78.627L358.1 67.3965H365.473V86H314.252V79.8477L322.211 78.4805V22.4746L314.252 21.1074V14.9062H339.789V21.1074L331.83 22.4746V78.627H356.977Z" fill="#A2E68A"/>
<path d="M397.064 87.0254C392.182 87.0254 387.934 85.9023 384.32 83.6562C380.707 81.4427 377.908 78.3503 375.922 74.3789C373.969 70.4076 372.992 65.8177 372.992 60.6094V58.4609C372.992 53.4154 374.034 48.9232 376.117 44.9844C378.168 41.013 380.902 37.888 384.32 35.6094C387.771 33.3307 391.531 32.1914 395.6 32.1914C400.352 32.1914 404.34 33.168 407.562 35.1211C410.753 37.0742 413.161 39.8249 414.789 43.373C416.417 46.8887 417.23 51.0391 417.23 55.8242V61.8301H382.953L382.807 62.0742C382.839 65.3945 383.441 68.3893 384.613 71.0586C385.753 73.6953 387.364 75.7624 389.447 77.2598C391.563 78.7572 394.102 79.5059 397.064 79.5059C400.32 79.5059 403.168 79.0501 405.609 78.1387C408.083 77.1947 410.215 75.9089 412.006 74.2812L415.766 80.5312C413.878 82.3542 411.371 83.9004 408.246 85.1699C405.154 86.4069 401.426 87.0254 397.064 87.0254ZM383.148 54.0664L383.246 54.3105H407.611V53.041C407.611 50.4694 407.172 48.1908 406.293 46.2051C405.382 44.1868 404.031 42.6081 402.24 41.4688C400.482 40.3294 398.269 39.7598 395.6 39.7598C393.484 39.7598 391.531 40.3783 389.74 41.6152C386.094 44.252 383.897 48.4023 383.148 54.0664Z" fill="#A2E68A"/>
<path d="M441.84 87.0254C436.339 87.0254 432.156 85.6908 429.291 83.0215C426.426 80.3197 424.994 76.5273 424.994 71.6445C424.994 68.2591 425.922 65.3294 427.777 62.8555C429.6 60.349 432.253 58.4121 435.736 57.0449C439.219 55.6777 443.386 54.9941 448.236 54.9941H457.66V49.8184C457.66 46.6283 456.684 44.1543 454.73 42.3965C452.81 40.6387 450.092 39.7598 446.576 39.7598C444.363 39.7598 442.442 40.0365 440.814 40.5898C439.187 41.1107 437.706 41.8431 436.371 42.7871L435.346 50.1602H427.924V38.0508C432.709 34.1445 438.975 32.1914 446.723 32.1914C453.135 32.1914 458.165 33.7214 461.811 36.7812C465.456 39.8411 467.279 44.2194 467.279 49.916V75.3555C467.279 76.0391 467.279 76.7064 467.279 77.3574C467.312 78.0085 467.361 78.6595 467.426 79.3105L472.553 79.8477V86H458.734C458.181 83.3307 457.839 80.9056 457.709 78.7246C455.854 81.1009 453.526 83.0866 450.727 84.6816C447.96 86.2441 444.997 87.0254 441.84 87.0254ZM443.256 78.9688C446.446 78.9688 449.359 78.2038 451.996 76.6738C454.633 75.1439 456.521 73.3047 457.66 71.1562V61.5859H447.895C443.467 61.5859 440.147 62.6439 437.934 64.7598C435.72 66.8757 434.613 69.2357 434.613 71.8398C434.613 76.5924 437.494 78.9688 443.256 78.9688Z" fill="#A2E68A"/>
<path d="M497.406 78.4805L506.488 79.8477V86H479.828V79.8477L487.787 78.4805V40.2969H479.535V33.168H487.787V26.4785C487.787 20.847 489.252 16.5013 492.182 13.4414C495.144 10.349 499.262 8.80273 504.535 8.80273C505.642 8.80273 506.83 8.90039 508.1 9.0957C509.402 9.25846 510.736 9.5026 512.104 9.82812L510.932 17.1523C510.346 17.0221 509.548 16.9082 508.539 16.8105C507.562 16.7129 506.635 16.6641 505.756 16.6641C500.189 16.6641 497.406 19.9355 497.406 26.4785V33.168H508.93V40.2969H497.406V78.4805Z" fill="#A2E68A"/>
</svg>
