<svg width="133" height="31" viewBox="0 0 133 31" fill="none" xmlns="http://www.w3.org/2000/svg">
<path d="M1.81854 20.9285C4.19963 10.6149 14.4907 4.18428 24.8044 6.56537L35.9978 9.14958C33.3191 20.7524 21.7416 27.9868 10.1387 25.3081L3.61393 23.8017C2.32473 23.5041 1.5209 22.2177 1.81854 20.9285Z" fill="#A2E68A"/>
<path d="M1.6704 21.7645C0.747863 11.2199 8.54812 1.92389 19.0928 1.00135L30.5369 0.000119634C31.5748 11.8628 22.7995 22.3208 10.9368 23.3587L4.2658 23.9423C2.94772 24.0576 1.78572 23.0826 1.6704 21.7645Z" fill="#A2E68A"/>
<path d="M47.5324 22.3632C46.3401 22.3632 45.2704 22.1348 44.3233 21.6782C43.3762 21.2216 42.5729 20.5747 41.9133 19.7375C40.5434 18.0293 39.8584 15.7842 39.8584 13.0021V12.7357C39.8584 9.96207 40.5434 7.7127 41.9133 5.98763C42.5729 5.15046 43.3762 4.50355 44.3233 4.04692C45.2704 3.59028 46.3401 3.36196 47.5324 3.36196C48.7924 3.36196 49.9002 3.59028 50.8558 4.04692C51.8198 4.50355 52.6231 5.15046 53.2658 5.98763C53.9169 6.8248 54.4031 7.81841 54.7245 8.96846C55.0543 10.1101 55.2192 11.3658 55.2192 12.7357V13.0021C55.2192 14.3805 55.0543 15.6404 54.7245 16.782C54.4031 17.9236 53.9169 18.9088 53.2658 19.7375C52.6231 20.5747 51.8198 21.2216 50.8558 21.6782C49.9002 22.1348 48.7924 22.3632 47.5324 22.3632ZM47.5324 20.2829C48.7586 20.2829 49.7522 19.9785 50.5133 19.3696C51.2659 18.7608 51.8198 17.9109 52.1749 16.8201C52.5301 15.7208 52.7077 14.4481 52.7077 13.0021V12.7103C52.7077 11.2728 52.5301 10.0086 52.1749 8.91772C51.8113 7.83532 51.249 6.98969 50.4879 6.38084C49.7268 5.76354 48.7417 5.45488 47.5324 5.45488C46.4247 5.45488 45.486 5.76354 44.7165 6.38084C43.947 6.99815 43.3635 7.85223 42.9661 8.94309C42.5686 10.0255 42.3699 11.2812 42.3699 12.7103V13.0021C42.3699 14.4312 42.5686 15.6954 42.9661 16.7947C43.3635 17.894 43.947 18.7523 44.7165 19.3696C45.486 19.9785 46.4247 20.2829 47.5324 20.2829Z" fill="#A2E68A"/>
<path d="M61.1174 25.4074L63.2991 25.7626V27.3735H56.6779V25.7626L58.6186 25.4074V10.3384L56.551 9.98321V8.37229H60.7622L60.9906 10.0466C61.9292 8.76128 63.2442 8.1186 64.9354 8.1186C66.077 8.1186 67.0452 8.42303 67.8401 9.03188C68.6435 9.64918 69.2565 10.5117 69.6794 11.6195C70.1022 12.7188 70.3136 14.0084 70.3136 15.4882V15.7546C70.3136 17.0653 70.1022 18.2196 69.6794 19.2174C69.2481 20.2068 68.635 20.9806 67.8401 21.5387C67.0452 22.0883 66.0897 22.3632 64.9735 22.3632C63.3076 22.3632 62.0222 21.8008 61.1174 20.6761V25.4074ZM64.1997 20.4098C65.3836 20.4098 66.2799 19.9785 66.8888 19.116C67.4976 18.2534 67.8021 17.133 67.8021 15.7546V15.4882C67.8021 14.4481 67.6668 13.5221 67.3962 12.7103C67.1256 11.907 66.7197 11.2812 66.1785 10.8331C65.6457 10.3764 64.9777 10.1481 64.1743 10.1481C63.464 10.1481 62.8552 10.3088 62.3478 10.6301C61.8404 10.9514 61.4303 11.3912 61.1174 11.9493V18.634C61.4303 19.2005 61.8362 19.6402 62.3351 19.9531C62.8425 20.2576 63.464 20.4098 64.1997 20.4098Z" fill="#A2E68A"/>
<path d="M77.0997 22.3124C76.085 22.3124 75.2774 22.0165 74.677 21.4245C74.0851 20.8241 73.7891 19.8686 73.7891 18.5578V10.2242H71.6201V8.37229H73.7891V5.06167H76.2879V8.37229H79.2687V10.2242H76.2879V18.5578C76.2879 19.2174 76.419 19.7037 76.6811 20.0165C76.9433 20.3294 77.2942 20.4859 77.7339 20.4859C78.0299 20.4859 78.3597 20.4605 78.7233 20.4098C79.0869 20.3506 79.3702 20.2998 79.5732 20.2576L79.9156 21.8938C79.552 22.0038 79.1039 22.101 78.5711 22.1856C78.0468 22.2701 77.5564 22.3124 77.0997 22.3124Z" fill="#A2E68A"/>
<path d="M92.7015 20.1814L92.9932 17.264H94.9086V22.0968H81.6027V20.4986L83.6702 20.1434V5.59441L81.6027 5.23925V3.62833H88.2366V5.23925L86.169 5.59441V20.1814H92.7015Z" fill="#A2E68A"/>
<path d="M103.115 22.3632C101.847 22.3632 100.743 22.0714 99.8047 21.4879C98.8661 20.9129 98.1389 20.1096 97.623 19.0779C97.1157 18.0462 96.862 16.8539 96.862 15.5009V14.9428C96.862 13.6321 97.1326 12.4651 97.6738 11.4419C98.2065 10.4102 98.9168 9.59845 99.8047 9.00651C100.701 8.41457 101.678 8.1186 102.735 8.1186C103.969 8.1186 105.005 8.37229 105.843 8.87967C106.671 9.38704 107.297 10.1016 107.72 11.0233C108.143 11.9366 108.354 13.0148 108.354 14.2578V15.818H99.4496L99.4115 15.8814C99.42 16.744 99.5764 17.522 99.8809 18.2154C100.177 18.9003 100.595 19.4373 101.137 19.8263C101.686 20.2153 102.346 20.4098 103.115 20.4098C103.961 20.4098 104.701 20.2914 105.335 20.0546C105.978 19.8094 106.532 19.4753 106.997 19.0525L107.973 20.6761C107.483 21.1497 106.832 21.5514 106.02 21.8812C105.217 22.2025 104.249 22.3632 103.115 22.3632ZM99.5003 13.8012L99.5257 13.8646H105.855V13.5348C105.855 12.8668 105.741 12.2748 105.513 11.759C105.276 11.2347 104.925 10.8246 104.46 10.5286C104.003 10.2327 103.428 10.0847 102.735 10.0847C102.185 10.0847 101.678 10.2453 101.213 10.5667C100.266 11.2516 99.6948 12.3298 99.5003 13.8012Z" fill="#A2E68A"/>
<path d="M114.747 22.3632C113.318 22.3632 112.231 22.0165 111.487 21.323C110.743 20.6212 110.371 19.636 110.371 18.3676C110.371 17.4881 110.612 16.7271 111.094 16.0844C111.567 15.4333 112.257 14.9301 113.161 14.575C114.066 14.2198 115.149 14.0422 116.409 14.0422H118.857V12.6977C118.857 11.8689 118.603 11.2263 118.096 10.7696C117.597 10.313 116.891 10.0847 115.977 10.0847C115.402 10.0847 114.903 10.1566 114.481 10.3003C114.058 10.4356 113.673 10.6259 113.326 10.8711L113.06 12.7865H111.132V9.64073C112.375 8.62598 114.003 8.1186 116.015 8.1186C117.681 8.1186 118.988 8.51605 119.935 9.31093C120.882 10.1058 121.355 11.2432 121.355 12.723V19.3316C121.355 19.5092 121.355 19.6825 121.355 19.8517C121.364 20.0208 121.377 20.1899 121.394 20.359L122.725 20.4986V22.0968H119.136C118.992 21.4034 118.903 20.7734 118.869 20.2068C118.387 20.8241 117.783 21.34 117.055 21.7543C116.337 22.1602 115.567 22.3632 114.747 22.3632ZM115.115 20.2702C115.943 20.2702 116.7 20.0715 117.385 19.6741C118.07 19.2766 118.561 18.7988 118.857 18.2407V15.7546H116.32C115.17 15.7546 114.307 16.0294 113.732 16.5791C113.157 17.1287 112.87 17.7418 112.87 18.4183C112.87 19.6529 113.618 20.2702 115.115 20.2702Z" fill="#A2E68A"/>
<path d="M129.182 20.1434L131.541 20.4986V22.0968H124.615V20.4986L126.683 20.1434V10.2242H124.539V8.37229H126.683V6.63453C126.683 5.1716 127.063 4.04269 127.825 3.2478C128.594 2.44446 129.664 2.04279 131.034 2.04279C131.321 2.04279 131.63 2.06815 131.96 2.11889C132.298 2.16117 132.645 2.2246 133 2.30916L132.695 4.21181C132.543 4.17799 132.336 4.14839 132.074 4.12302C131.82 4.09765 131.579 4.08497 131.351 4.08497C129.905 4.08497 129.182 4.93482 129.182 6.63453V8.37229H132.175V10.2242H129.182V20.1434Z" fill="#A2E68A"/>
</svg>
