<svg width="512" height="117" viewBox="0 0 512 117" fill="none" xmlns="http://www.w3.org/2000/svg">
<path d="M7.00078 80.564C16.1667 40.862 55.782 16.1076 95.484 25.2736L138.573 35.2214C128.261 79.8861 83.6939 107.735 39.0292 97.4232L13.9121 91.6244C8.94934 90.4787 5.85504 85.5268 7.00078 80.564Z" fill="#ECF4E9"/>
<path d="M6.43015 83.7814C2.87888 43.1901 32.9057 7.4055 73.497 3.85422L117.551 5.03291e-06C121.546 45.6652 87.7659 85.9229 42.1007 89.9181L16.4211 92.1647C11.3471 92.6087 6.87406 88.8553 6.43015 83.7814Z" fill="#ECF4E9"/>
<path d="M182.973 86.0865C178.383 86.0865 174.265 85.2076 170.619 83.4498C166.974 81.692 163.881 79.2017 161.342 75.9791C156.069 69.4035 153.432 60.761 153.432 50.0513V49.0259C153.432 38.3489 156.069 29.69 161.342 23.0494C163.881 19.8267 166.974 17.3365 170.619 15.5787C174.265 13.8209 178.383 12.942 182.973 12.942C187.823 12.942 192.088 13.8209 195.766 15.5787C199.477 17.3365 202.569 19.8267 205.043 23.0494C207.55 26.272 209.422 30.0969 210.659 34.524C211.928 38.9185 212.563 43.7525 212.563 49.0259V50.0513C212.563 55.3573 211.928 60.2076 210.659 64.6021C209.422 68.9966 207.55 72.789 205.043 75.9791C202.569 79.2017 199.477 81.692 195.766 83.4498C192.088 85.2076 187.823 86.0865 182.973 86.0865ZM182.973 78.0787C187.693 78.0787 191.518 76.9068 194.448 74.563C197.345 72.2193 199.477 68.9478 200.844 64.7486C202.211 60.5168 202.895 55.6177 202.895 50.0513V48.9283C202.895 43.3944 202.211 38.5279 200.844 34.3287C199.444 30.162 197.28 26.9068 194.35 24.563C191.42 22.1867 187.628 20.9986 182.973 20.9986C178.709 20.9986 175.095 22.1867 172.133 24.563C169.171 26.9394 166.925 30.2271 165.395 34.4263C163.865 38.593 163.1 43.427 163.1 48.9283V50.0513C163.1 55.5526 163.865 60.4192 165.395 64.6509C166.925 68.8827 169.171 72.1867 172.133 74.563C175.095 76.9068 178.709 78.0787 182.973 78.0787Z" fill="#ECF4E9"/>
<path d="M235.268 97.8052L243.666 99.1724V105.374H218.178V99.1724L225.649 97.8052V39.7974L217.69 38.4302V32.2291H233.901L234.78 38.6744C238.393 33.7265 243.455 31.2525 249.965 31.2525C254.36 31.2525 258.087 32.4244 261.147 34.7681C264.239 37.1444 266.599 40.4647 268.227 44.7291C269.854 48.9608 270.668 53.925 270.668 59.6216V60.647C270.668 65.6926 269.854 70.136 268.227 73.9771C266.567 77.7857 264.207 80.7642 261.147 82.9127C258.087 85.0285 254.409 86.0865 250.112 86.0865C243.699 86.0865 238.751 83.9218 235.268 79.5923V97.8052ZM247.133 78.567C251.69 78.567 255.141 76.9068 257.485 73.5865C259.828 70.2662 261 65.953 261 60.647V59.6216C261 55.6177 260.479 52.0533 259.438 48.9283C258.396 45.8358 256.834 43.427 254.75 41.7017C252.7 39.9439 250.128 39.065 247.035 39.065C244.301 39.065 241.957 39.6835 240.004 40.9205C238.051 42.1575 236.472 43.8502 235.268 45.9986V71.731C236.472 73.912 238.035 75.6047 239.955 76.8091C241.909 77.981 244.301 78.567 247.133 78.567Z" fill="#ECF4E9"/>
<path d="M296.791 85.8912C292.885 85.8912 289.776 84.7519 287.465 82.4732C285.187 80.162 284.047 76.4836 284.047 71.438V39.358H275.698V32.2291H284.047V19.4849H293.666V32.2291H305.141V39.358H293.666V71.438C293.666 73.9771 294.171 75.8489 295.18 77.0533C296.189 78.2577 297.54 78.8599 299.233 78.8599C300.372 78.8599 301.642 78.7623 303.041 78.567C304.441 78.3391 305.532 78.1438 306.313 77.981L307.631 84.2798C306.231 84.703 304.506 85.0774 302.455 85.4029C300.437 85.7284 298.549 85.8912 296.791 85.8912Z" fill="#ECF4E9"/>
<path d="M356.85 77.688L357.973 66.4576H365.346V85.0611H314.125V78.9088L322.084 77.5416V21.5357L314.125 20.1685V13.9673H339.662V20.1685L331.703 21.5357V77.688H356.85Z" fill="#ECF4E9"/>
<path d="M396.938 86.0865C392.055 86.0865 387.807 84.9634 384.194 82.7173C380.58 80.5038 377.781 77.4114 375.795 73.44C373.842 69.4686 372.866 64.8788 372.866 59.6705V57.522C372.866 52.4765 373.907 47.9843 375.991 44.0455C378.041 40.0741 380.776 36.9491 384.194 34.6705C387.644 32.3918 391.404 31.2525 395.473 31.2525C400.226 31.2525 404.213 32.2291 407.436 34.1822C410.626 36.1353 413.035 38.886 414.662 42.4341C416.29 45.9498 417.104 50.1002 417.104 54.8853V60.8912H382.827L382.68 61.1353C382.713 64.4556 383.315 67.4504 384.487 70.1197C385.626 72.7564 387.237 74.8235 389.321 76.3209C391.437 77.8183 393.976 78.567 396.938 78.567C400.193 78.567 403.041 78.1112 405.483 77.1998C407.957 76.2558 410.089 74.9699 411.879 73.3423L415.639 79.5923C413.751 81.4153 411.244 82.9615 408.119 84.231C405.027 85.468 401.3 86.0865 396.938 86.0865ZM383.022 53.1275L383.119 53.3716H407.485V52.1021C407.485 49.5305 407.045 47.2519 406.166 45.2662C405.255 43.2479 403.904 41.6692 402.114 40.5298C400.356 39.3905 398.142 38.8209 395.473 38.8209C393.357 38.8209 391.404 39.4394 389.614 40.6763C385.968 43.313 383.771 47.4634 383.022 53.1275Z" fill="#ECF4E9"/>
<path d="M441.713 86.0865C436.212 86.0865 432.029 84.7519 429.164 82.0826C426.3 79.3808 424.868 75.5884 424.868 70.7056C424.868 67.3202 425.795 64.3905 427.651 61.9166C429.474 59.4101 432.127 57.4732 435.61 56.106C439.093 54.7388 443.259 54.0552 448.11 54.0552H457.534V48.8795C457.534 45.6894 456.557 43.2154 454.604 41.4576C452.683 39.6998 449.965 38.8209 446.45 38.8209C444.236 38.8209 442.315 39.0976 440.688 39.6509C439.06 40.1718 437.579 40.9042 436.244 41.8482L435.219 49.2213H427.797V37.1119C432.582 33.2056 438.849 31.2525 446.596 31.2525C453.009 31.2525 458.038 32.7824 461.684 35.8423C465.33 38.9022 467.153 43.2805 467.153 48.9771V74.4166C467.153 75.1002 467.153 75.7675 467.153 76.4185C467.185 77.0696 467.234 77.7206 467.299 78.3716L472.426 78.9088V85.0611H458.608C458.054 82.3918 457.713 79.9667 457.582 77.7857C455.727 80.162 453.399 82.1477 450.6 83.7427C447.833 85.3052 444.871 86.0865 441.713 86.0865ZM443.129 78.0298C446.319 78.0298 449.233 77.2649 451.869 75.7349C454.506 74.205 456.394 72.3658 457.534 70.2173V60.647H447.768C443.341 60.647 440.021 61.705 437.807 63.8209C435.593 65.9367 434.487 68.2968 434.487 70.9009C434.487 75.6535 437.368 78.0298 443.129 78.0298Z" fill="#ECF4E9"/>
<path d="M497.28 77.5416L506.362 78.9088V85.0611H479.702V78.9088L487.66 77.5416V39.358H479.409V32.2291H487.66V25.5396C487.66 19.9081 489.125 15.5624 492.055 12.5025C495.017 9.41005 499.135 7.86383 504.409 7.86383C505.515 7.86383 506.703 7.96149 507.973 8.1568C509.275 8.31956 510.61 8.5637 511.977 8.88922L510.805 16.2134C510.219 16.0832 509.422 15.9693 508.412 15.8716C507.436 15.774 506.508 15.7252 505.629 15.7252C500.063 15.7252 497.28 18.9966 497.28 25.5396V32.2291H508.803V39.358H497.28V77.5416Z" fill="#ECF4E9"/>
</svg>
